<?xml version="1.0" encoding="UTF-8" standalone="no"?>
<!DOCTYPE svg PUBLIC "-//W3C//DTD SVG 1.1//EN"
 "http://www.w3.org/Graphics/SVG/1.1/DTD/svg11.dtd">
<!-- Generated by graphviz version 2.38.0 (20140413.2041)
 -->
<!-- Title: bktree Pages: 1 -->
<svg width="1628pt" height="1313pt"
 viewBox="0.00 0.00 1628.07 1313.00" xmlns="http://www.w3.org/2000/svg" xmlns:xlink="http://www.w3.org/1999/xlink">
<g id="graph0" class="graph" transform="scale(1 1) rotate(0) translate(4 1309)">
<title>bktree</title>
<polygon fill="white" stroke="none" points="-4,4 -4,-1309 1624.07,-1309 1624.07,4 -4,4"/>
<!-- 11111111111111111111111111111111 -->
<g id="node1" class="node"><title>11111111111111111111111111111111</title>
<ellipse fill="none" stroke="black" cx="182.634" cy="-450" rx="182.768" ry="18"/>
<text text-anchor="middle" x="182.634" y="-446.3" font-family="Source Code Pro" font-size="14.00">11111111111111111111111111111111</text>
</g>
<!-- 11111111111111011111101011111011 -->
<g id="node2" class="node"><title>11111111111111011111101011111011</title>
<ellipse fill="none" stroke="black" cx="600.901" cy="-1260" rx="182.768" ry="18"/>
<text text-anchor="middle" x="600.901" y="-1256.3" font-family="Source Code Pro" font-size="14.00">11111111111111011111101011111011</text>
</g>
<!-- 11111111111111111111111111111111&#45;&#45;11111111111111011111101011111011 -->
<g id="edge1" class="edge"><title>11111111111111111111111111111111&#45;&#45;11111111111111011111101011111011</title>
<path fill="none" stroke="black" d="M186.25,-468.011C202.242,-575.443 290.366,-1130.5 418.268,-1233 427.099,-1240.08 436.974,-1245.71 447.433,-1250.17"/>
<text text-anchor="middle" x="391.768" y="-1209.8" font-family="Source Code Pro" font-size="14.00">4</text>
</g>
<!-- 00101111111110111111011111111101 -->
<g id="node3" class="node"><title>00101111111110111111011111111101</title>
<ellipse fill="none" stroke="black" cx="600.901" cy="-1206" rx="182.768" ry="18"/>
<text text-anchor="middle" x="600.901" y="-1202.3" font-family="Source Code Pro" font-size="14.00">00101111111110111111011111111101</text>
</g>
<!-- 11111111111111111111111111111111&#45;&#45;00101111111110111111011111111101 -->
<g id="edge2" class="edge"><title>11111111111111111111111111111111&#45;&#45;00101111111110111111011111111101</title>
<path fill="none" stroke="black" d="M183.936,-468.05C186.422,-556.707 209.263,-949.899 418.268,-1152 438.015,-1171.1 464.204,-1183.48 490.531,-1191.5"/>
<text text-anchor="middle" x="391.768" y="-1126.8" font-family="Source Code Pro" font-size="14.00">6</text>
</g>
<!-- 11110001101110110110111111111111 -->
<g id="node4" class="node"><title>11110001101110110110111111111111</title>
<ellipse fill="none" stroke="black" cx="600.901" cy="-1125" rx="182.768" ry="18"/>
<text text-anchor="middle" x="600.901" y="-1121.3" font-family="Source Code Pro" font-size="14.00">11110001101110110110111111111111</text>
</g>
<!-- 11111111111111111111111111111111&#45;&#45;11110001101110110110111111111111 -->
<g id="edge3" class="edge"><title>11111111111111111111111111111111&#45;&#45;11110001101110110110111111111111</title>
<path fill="none" stroke="black" d="M187.836,-468.087C205.341,-540.414 278.169,-813.441 418.268,-990 459.785,-1042.32 526.259,-1084.69 566.235,-1107.24"/>
<text text-anchor="middle" x="391.768" y="-967.8" font-family="Source Code Pro" font-size="14.00">7</text>
</g>
<!-- 11101001100111100110111111111111 -->
<g id="node5" class="node"><title>11101001100111100110111111111111</title>
<ellipse fill="none" stroke="black" cx="600.901" cy="-963" rx="182.768" ry="18"/>
<text text-anchor="middle" x="600.901" y="-959.3" font-family="Source Code Pro" font-size="14.00">11101001100111100110111111111111</text>
</g>
<!-- 11111111111111111111111111111111&#45;&#45;11101001100111100110111111111111 -->
<g id="edge4" class="edge"><title>11111111111111111111111111111111&#45;&#45;11101001100111100110111111111111</title>
<path fill="none" stroke="black" d="M193.341,-468.113C222.868,-522.342 315.855,-686.887 418.268,-804 468.34,-861.259 538.711,-917.249 575.429,-944.988"/>
<text text-anchor="middle" x="391.768" y="-780.8" font-family="Source Code Pro" font-size="14.00">8</text>
</g>
<!-- 00111101101110110011101111111010 -->
<g id="node6" class="node"><title>00111101101110110011101111111010</title>
<ellipse fill="none" stroke="black" cx="600.901" cy="-777" rx="182.768" ry="18"/>
<text text-anchor="middle" x="600.901" y="-773.3" font-family="Source Code Pro" font-size="14.00">00111101101110110011101111111010</text>
</g>
<!-- 11111111111111111111111111111111&#45;&#45;00111101101110110011101111111010 -->
<g id="edge5" class="edge"><title>11111111111111111111111111111111&#45;&#45;00111101101110110011101111111010</title>
<path fill="none" stroke="black" d="M194.311,-468.149C223.688,-516.51 310.721,-649.581 418.268,-720 447.577,-739.191 483.755,-752.262 516.089,-760.991"/>
<text text-anchor="middle" x="391.768" y="-706.8" font-family="Source Code Pro" font-size="14.00">10</text>
</g>
<!-- 00100101111110111110001111111001 -->
<g id="node7" class="node"><title>00100101111110111110001111111001</title>
<ellipse fill="none" stroke="black" cx="600.901" cy="-693" rx="182.768" ry="18"/>
<text text-anchor="middle" x="600.901" y="-689.3" font-family="Source Code Pro" font-size="14.00">00100101111110111110001111111001</text>
</g>
<!-- 11111111111111111111111111111111&#45;&#45;00100101111110111110001111111001 -->
<g id="edge6" class="edge"><title>11111111111111111111111111111111&#45;&#45;00100101111110111110001111111001</title>
<path fill="none" stroke="black" d="M202.866,-468.1C241.161,-503.323 330.813,-581.763 418.268,-629 455.774,-649.259 500.975,-665.213 536.903,-676.125"/>
<text text-anchor="middle" x="391.768" y="-620.8" font-family="Source Code Pro" font-size="14.00">11</text>
</g>
<!-- 11101001000110101011100111011111 -->
<g id="node8" class="node"><title>11101001000110101011100111011111</title>
<ellipse fill="none" stroke="black" cx="600.901" cy="-602" rx="182.768" ry="18"/>
<text text-anchor="middle" x="600.901" y="-598.3" font-family="Source Code Pro" font-size="14.00">11101001000110101011100111011111</text>
</g>
<!-- 11111111111111111111111111111111&#45;&#45;11101001000110101011100111011111 -->
<g id="edge7" class="edge"><title>11111111111111111111111111111111&#45;&#45;11101001000110101011100111011111</title>
<path fill="none" stroke="black" d="M231.385,-467.436C311.468,-496.679 471.93,-555.271 552.068,-584.534"/>
<text text-anchor="middle" x="391.768" y="-529.8" font-family="Source Code Pro" font-size="14.00">12</text>
</g>
<!-- 11100011100111001110101011010011 -->
<g id="node9" class="node"><title>11100011100111001110101011010011</title>
<ellipse fill="none" stroke="black" cx="600.901" cy="-504" rx="182.768" ry="18"/>
<text text-anchor="middle" x="600.901" y="-500.3" font-family="Source Code Pro" font-size="14.00">11100011100111001110101011010011</text>
</g>
<!-- 11111111111111111111111111111111&#45;&#45;11100011100111001110101011010011 -->
<g id="edge8" class="edge"><title>11111111111111111111111111111111&#45;&#45;11100011100111001110101011010011</title>
<path fill="none" stroke="black" d="M293.82,-464.294C354.278,-472.137 429.02,-481.832 489.51,-489.68"/>
<text text-anchor="middle" x="391.768" y="-480.8" font-family="Source Code Pro" font-size="14.00">13</text>
</g>
<!-- 01100010011011101011101000111101 -->
<g id="node10" class="node"><title>01100010011011101011101000111101</title>
<ellipse fill="none" stroke="black" cx="600.901" cy="-450" rx="182.768" ry="18"/>
<text text-anchor="middle" x="600.901" y="-446.3" font-family="Source Code Pro" font-size="14.00">01100010011011101011101000111101</text>
</g>
<!-- 11111111111111111111111111111111&#45;&#45;01100010011011101011101000111101 -->
<g id="edge9" class="edge"><title>11111111111111111111111111111111&#45;&#45;01100010011011101011101000111101</title>
<path fill="none" stroke="black" d="M365.307,-450C382.821,-450 400.59,-450 418.106,-450"/>
<text text-anchor="middle" x="391.768" y="-453.8" font-family="Source Code Pro" font-size="14.00">14</text>
</g>
<!-- 10010001001011101100101111011001 -->
<g id="node11" class="node"><title>10010001001011101100101111011001</title>
<ellipse fill="none" stroke="black" cx="600.901" cy="-396" rx="182.768" ry="18"/>
<text text-anchor="middle" x="600.901" y="-392.3" font-family="Source Code Pro" font-size="14.00">10010001001011101100101111011001</text>
</g>
<!-- 11111111111111111111111111111111&#45;&#45;10010001001011101100101111011001 -->
<g id="edge10" class="edge"><title>11111111111111111111111111111111&#45;&#45;10010001001011101100101111011001</title>
<path fill="none" stroke="black" d="M293.82,-435.706C354.278,-427.863 429.02,-418.168 489.51,-410.32"/>
<text text-anchor="middle" x="391.768" y="-426.8" font-family="Source Code Pro" font-size="14.00">15</text>
</g>
<!-- 11100001001110010110010110001011 -->
<g id="node12" class="node"><title>11100001001110010110010110001011</title>
<ellipse fill="none" stroke="black" cx="600.901" cy="-342" rx="182.768" ry="18"/>
<text text-anchor="middle" x="600.901" y="-338.3" font-family="Source Code Pro" font-size="14.00">11100001001110010110010110001011</text>
</g>
<!-- 11111111111111111111111111111111&#45;&#45;11100001001110010110010110001011 -->
<g id="edge11" class="edge"><title>11111111111111111111111111111111&#45;&#45;11100001001110010110010110001011</title>
<path fill="none" stroke="black" d="M226.59,-432.476C273.102,-414.143 349.828,-385.748 418.268,-369 439.48,-363.809 462.345,-359.463 484.459,-355.882"/>
<text text-anchor="middle" x="391.768" y="-380.8" font-family="Source Code Pro" font-size="14.00">16</text>
</g>
<!-- 00111001100110101010101110001000 -->
<g id="node13" class="node"><title>00111001100110101010101110001000</title>
<ellipse fill="none" stroke="black" cx="600.901" cy="-288" rx="182.768" ry="18"/>
<text text-anchor="middle" x="600.901" y="-284.3" font-family="Source Code Pro" font-size="14.00">00111001100110101010101110001000</text>
</g>
<!-- 11111111111111111111111111111111&#45;&#45;00111001100110101010101110001000 -->
<g id="edge12" class="edge"><title>11111111111111111111111111111111&#45;&#45;00111001100110101010101110001000</title>
<path fill="none" stroke="black" d="M207.492,-432.159C248.327,-402.602 335.265,-343.88 418.268,-315 435.28,-309.081 453.63,-304.459 471.899,-300.851"/>
<text text-anchor="middle" x="391.768" y="-331.8" font-family="Source Code Pro" font-size="14.00">17</text>
</g>
<!-- 01110001000111000000101110010011 -->
<g id="node14" class="node"><title>01110001000111000000101110010011</title>
<ellipse fill="none" stroke="black" cx="600.901" cy="-234" rx="182.768" ry="18"/>
<text text-anchor="middle" x="600.901" y="-230.3" font-family="Source Code Pro" font-size="14.00">01110001000111000000101110010011</text>
</g>
<!-- 11111111111111111111111111111111&#45;&#45;01110001000111000000101110010011 -->
<g id="edge13" class="edge"><title>11111111111111111111111111111111&#45;&#45;01110001000111000000101110010011</title>
<path fill="none" stroke="black" d="M199.434,-431.983C234.475,-393.346 323.161,-302.657 418.268,-261 432.723,-254.669 448.378,-249.776 464.23,-246.003"/>
<text text-anchor="middle" x="391.768" y="-278.8" font-family="Source Code Pro" font-size="14.00">18</text>
</g>
<!-- 01000011000010100110001110001011 -->
<g id="node15" class="node"><title>01000011000010100110001110001011</title>
<ellipse fill="none" stroke="black" cx="600.901" cy="-180" rx="182.768" ry="18"/>
<text text-anchor="middle" x="600.901" y="-176.3" font-family="Source Code Pro" font-size="14.00">01000011000010100110001110001011</text>
</g>
<!-- 11111111111111111111111111111111&#45;&#45;01000011000010100110001110001011 -->
<g id="edge14" class="edge"><title>11111111111111111111111111111111&#45;&#45;01000011000010100110001110001011</title>
<path fill="none" stroke="black" d="M194.913,-431.8C224.796,-385.34 311.109,-262.141 418.268,-207 431.024,-200.436 444.908,-195.345 459.129,-191.413"/>
<text text-anchor="middle" x="391.768" y="-228.8" font-family="Source Code Pro" font-size="14.00">19</text>
</g>
<!-- 01000010011010000010010100001111 -->
<g id="node16" class="node"><title>01000010011010000010010100001111</title>
<ellipse fill="none" stroke="black" cx="600.901" cy="-126" rx="182.768" ry="18"/>
<text text-anchor="middle" x="600.901" y="-122.3" font-family="Source Code Pro" font-size="14.00">01000010011010000010010100001111</text>
</g>
<!-- 11111111111111111111111111111111&#45;&#45;01000010011010000010010100001111 -->
<g id="edge15" class="edge"><title>11111111111111111111111111111111&#45;&#45;01000010011010000010010100001111</title>
<path fill="none" stroke="black" d="M191.891,-431.758C217.076,-378.447 298.564,-222.314 418.268,-153 429.855,-146.29 442.529,-141.056 455.621,-136.992"/>
<text text-anchor="middle" x="391.768" y="-179.8" font-family="Source Code Pro" font-size="14.00">20</text>
</g>
<!-- 01100011010100100000110100000001 -->
<g id="node17" class="node"><title>01100011010100100000110100000001</title>
<ellipse fill="none" stroke="black" cx="600.901" cy="-72" rx="182.768" ry="18"/>
<text text-anchor="middle" x="600.901" y="-68.3" font-family="Source Code Pro" font-size="14.00">01100011010100100000110100000001</text>
</g>
<!-- 11111111111111111111111111111111&#45;&#45;01100011010100100000110100000001 -->
<g id="edge16" class="edge"><title>11111111111111111111111111111111&#45;&#45;01100011010100100000110100000001</title>
<path fill="none" stroke="black" d="M189.65,-431.934C210.432,-372.629 285.306,-182.912 418.268,-99 429.052,-92.1942 440.9,-86.8561 453.217,-82.6931"/>
<text text-anchor="middle" x="391.768" y="-122.8" font-family="Source Code Pro" font-size="14.00">21</text>
</g>
<!-- 01100000010001100000010000010111 -->
<g id="node18" class="node"><title>01100000010001100000010000010111</title>
<ellipse fill="none" stroke="black" cx="600.901" cy="-18" rx="182.768" ry="18"/>
<text text-anchor="middle" x="600.901" y="-14.3" font-family="Source Code Pro" font-size="14.00">01100000010001100000010000010111</text>
</g>
<!-- 11111111111111111111111111111111&#45;&#45;01100000010001100000010000010111 -->
<g id="edge17" class="edge"><title>11111111111111111111111111111111&#45;&#45;01100000010001100000010000010111</title>
<path fill="none" stroke="black" d="M187.59,-431.94C203.127,-365.916 266.708,-136.71 418.268,-45 429.45,-38.2332 441.71,-32.9413 454.415,-28.8254"/>
<text text-anchor="middle" x="391.768" y="-70.8" font-family="Source Code Pro" font-size="14.00">22</text>
</g>
<!-- 10101111101111111111011101111101 -->
<g id="node49" class="node"><title>10101111101111111111011101111101</title>
<ellipse fill="none" stroke="black" cx="1019.17" cy="-1287" rx="182.768" ry="18"/>
<text text-anchor="middle" x="1019.17" y="-1283.3" font-family="Source Code Pro" font-size="14.00">10101111101111111111011101111101</text>
</g>
<!-- 00101111111110111111011111111101&#45;&#45;10101111101111111111011101111101 -->
<g id="edge48" class="edge"><title>00101111111110111111011111111101&#45;&#45;10101111101111111111011101111101</title>
<path fill="none" stroke="black" d="M726.725,-1219.09C745.986,-1222.68 765.467,-1227.22 783.535,-1233 808.716,-1241.05 811.354,-1251.95 836.535,-1260 854.603,-1265.78 874.084,-1270.32 893.346,-1273.91"/>
<text text-anchor="middle" x="810.035" y="-1255.8" font-family="Source Code Pro" font-size="14.00">4</text>
</g>
<!-- 01101011111111111110111101111011 -->
<g id="node50" class="node"><title>01101011111111111110111101111011</title>
<ellipse fill="none" stroke="black" cx="1019.17" cy="-1233" rx="182.768" ry="18"/>
<text text-anchor="middle" x="1019.17" y="-1229.3" font-family="Source Code Pro" font-size="14.00">01101011111111111110111101111011</text>
</g>
<!-- 00101111111110111111011111111101&#45;&#45;01101011111111111110111101111011 -->
<g id="edge49" class="edge"><title>00101111111110111111011111111101&#45;&#45;01101011111111111110111101111011</title>
<path fill="none" stroke="black" d="M753.951,-1215.86C790.53,-1218.23 829.607,-1220.77 866.184,-1223.14"/>
<text text-anchor="middle" x="810.035" y="-1222.8" font-family="Source Code Pro" font-size="14.00">8</text>
</g>
<!-- 11100111101111111100111011110111 -->
<g id="node47" class="node"><title>11100111101111111100111011110111</title>
<ellipse fill="none" stroke="black" cx="1019.17" cy="-1179" rx="182.768" ry="18"/>
<text text-anchor="middle" x="1019.17" y="-1175.3" font-family="Source Code Pro" font-size="14.00">11100111101111111100111011110111</text>
</g>
<!-- 11110001101110110110111111111111&#45;&#45;11100111101111111100111011110111 -->
<g id="edge46" class="edge"><title>11110001101110110110111111111111&#45;&#45;11100111101111111100111011110111</title>
<path fill="none" stroke="black" d="M712.088,-1139.29C772.546,-1147.14 847.287,-1156.83 907.777,-1164.68"/>
<text text-anchor="middle" x="810.035" y="-1155.8" font-family="Source Code Pro" font-size="14.00">8</text>
</g>
<!-- 11110111100111011111101011111011 -->
<g id="node48" class="node"><title>11110111100111011111101011111011</title>
<ellipse fill="none" stroke="black" cx="1019.17" cy="-1125" rx="182.768" ry="18"/>
<text text-anchor="middle" x="1019.17" y="-1121.3" font-family="Source Code Pro" font-size="14.00">11110111100111011111101011111011</text>
</g>
<!-- 11110001101110110110111111111111&#45;&#45;11110111100111011111101011111011 -->
<g id="edge47" class="edge"><title>11110001101110110110111111111111&#45;&#45;11110111100111011111101011111011</title>
<path fill="none" stroke="black" d="M783.574,-1125C801.089,-1125 818.857,-1125 836.373,-1125"/>
<text text-anchor="middle" x="810.035" y="-1128.8" font-family="Source Code Pro" font-size="14.00">10</text>
</g>
<!-- 01011111100111111110110011101111 -->
<g id="node41" class="node"><title>01011111100111111110110011101111</title>
<ellipse fill="none" stroke="black" cx="1019.17" cy="-1071" rx="182.768" ry="18"/>
<text text-anchor="middle" x="1019.17" y="-1067.3" font-family="Source Code Pro" font-size="14.00">01011111100111111110110011101111</text>
</g>
<!-- 11101001100111100110111111111111&#45;&#45;01011111100111111110110011101111 -->
<g id="edge40" class="edge"><title>11101001100111100110111111111111&#45;&#45;01011111100111111110110011101111</title>
<path fill="none" stroke="black" d="M644.858,-980.524C691.369,-998.857 768.096,-1027.25 836.535,-1044 857.747,-1049.19 880.612,-1053.54 902.727,-1057.12"/>
<text text-anchor="middle" x="810.035" y="-1041.8" font-family="Source Code Pro" font-size="14.00">10</text>
</g>
<!-- 00101111101110111111011101111011 -->
<g id="node42" class="node"><title>00101111101110111111011101111011</title>
<ellipse fill="none" stroke="black" cx="1019.17" cy="-1017" rx="182.768" ry="18"/>
<text text-anchor="middle" x="1019.17" y="-1013.3" font-family="Source Code Pro" font-size="14.00">00101111101110111111011101111011</text>
</g>
<!-- 11101001100111100110111111111111&#45;&#45;00101111101110111111011101111011 -->
<g id="edge41" class="edge"><title>11101001100111100110111111111111&#45;&#45;00101111101110111111011101111011</title>
<path fill="none" stroke="black" d="M712.088,-977.294C772.546,-985.137 847.287,-994.832 907.777,-1002.68"/>
<text text-anchor="middle" x="810.035" y="-993.8" font-family="Source Code Pro" font-size="14.00">12</text>
</g>
<!-- 11010011011011111111100111111011 -->
<g id="node43" class="node"><title>11010011011011111111100111111011</title>
<ellipse fill="none" stroke="black" cx="1019.17" cy="-963" rx="182.768" ry="18"/>
<text text-anchor="middle" x="1019.17" y="-959.3" font-family="Source Code Pro" font-size="14.00">11010011011011111111100111111011</text>
</g>
<!-- 11101001100111100110111111111111&#45;&#45;11010011011011111111100111111011 -->
<g id="edge42" class="edge"><title>11101001100111100110111111111111&#45;&#45;11010011011011111111100111111011</title>
<path fill="none" stroke="black" d="M783.574,-963C801.089,-963 818.857,-963 836.373,-963"/>
<text text-anchor="middle" x="810.035" y="-966.8" font-family="Source Code Pro" font-size="14.00">14</text>
</g>
<!-- 11011110011011111111100111110011 -->
<g id="node44" class="node"><title>11011110011011111111100111110011</title>
<ellipse fill="none" stroke="black" cx="1019.17" cy="-909" rx="182.768" ry="18"/>
<text text-anchor="middle" x="1019.17" y="-905.3" font-family="Source Code Pro" font-size="14.00">11011110011011111111100111110011</text>
</g>
<!-- 11101001100111100110111111111111&#45;&#45;11011110011011111111100111110011 -->
<g id="edge43" class="edge"><title>11101001100111100110111111111111&#45;&#45;11011110011011111111100111110011</title>
<path fill="none" stroke="black" d="M712.088,-948.706C772.546,-940.863 847.287,-931.168 907.777,-923.32"/>
<text text-anchor="middle" x="810.035" y="-939.8" font-family="Source Code Pro" font-size="14.00">16</text>
</g>
<!-- 11111101010110100110111110111001 -->
<g id="node35" class="node"><title>11111101010110100110111110111001</title>
<ellipse fill="none" stroke="black" cx="1019.17" cy="-855" rx="182.768" ry="18"/>
<text text-anchor="middle" x="1019.17" y="-851.3" font-family="Source Code Pro" font-size="14.00">11111101010110100110111110111001</text>
</g>
<!-- 00111101101110110011101111111010&#45;&#45;11111101010110100110111110111001 -->
<g id="edge34" class="edge"><title>00111101101110110011101111111010&#45;&#45;11111101010110100110111110111001</title>
<path fill="none" stroke="black" d="M672.502,-793.628C718.954,-804.251 781.176,-817.881 836.535,-828 860.84,-832.443 887.075,-836.67 911.844,-840.405"/>
<text text-anchor="middle" x="810.035" y="-827.8" font-family="Source Code Pro" font-size="14.00">12</text>
</g>
<!-- 00100011101111111101011110111101 -->
<g id="node36" class="node"><title>00100011101111111101011110111101</title>
<ellipse fill="none" stroke="black" cx="1019.17" cy="-801" rx="182.768" ry="18"/>
<text text-anchor="middle" x="1019.17" y="-797.3" font-family="Source Code Pro" font-size="14.00">00100011101111111101011110111101</text>
</g>
<!-- 00111101101110110011101111111010&#45;&#45;00100011101111111101011110111101 -->
<g id="edge35" class="edge"><title>00111101101110110011101111111010&#45;&#45;00100011101111111101011110111101</title>
<path fill="none" stroke="black" d="M758.978,-786.056C792.379,-787.982 827.649,-790.016 861.052,-791.941"/>
<text text-anchor="middle" x="810.035" y="-792.8" font-family="Source Code Pro" font-size="14.00">14</text>
</g>
<!-- 10010111101011111101110101010111 -->
<g id="node37" class="node"><title>10010111101011111101110101010111</title>
<ellipse fill="none" stroke="black" cx="1019.17" cy="-747" rx="182.768" ry="18"/>
<text text-anchor="middle" x="1019.17" y="-743.3" font-family="Source Code Pro" font-size="14.00">10010111101011111101110101010111</text>
</g>
<!-- 00111101101110110011101111111010&#45;&#45;10010111101011111101110101010111 -->
<g id="edge36" class="edge"><title>00111101101110110011101111111010&#45;&#45;10010111101011111101110101010111</title>
<path fill="none" stroke="black" d="M748.955,-766.402C788.614,-763.544 831.52,-760.452 871.176,-757.594"/>
<text text-anchor="middle" x="810.035" y="-765.8" font-family="Source Code Pro" font-size="14.00">16</text>
</g>
<!-- 00001111101011110101111111100101 -->
<g id="node34" class="node"><title>00001111101011110101111111100101</title>
<ellipse fill="none" stroke="black" cx="1019.17" cy="-693" rx="182.768" ry="18"/>
<text text-anchor="middle" x="1019.17" y="-689.3" font-family="Source Code Pro" font-size="14.00">00001111101011110101111111100101</text>
</g>
<!-- 00100101111110111110001111111001&#45;&#45;00001111101011110101111111100101 -->
<g id="edge33" class="edge"><title>00100101111110111110001111111001&#45;&#45;00001111101011110101111111100101</title>
<path fill="none" stroke="black" d="M783.574,-693C801.089,-693 818.857,-693 836.373,-693"/>
<text text-anchor="middle" x="810.035" y="-696.8" font-family="Source Code Pro" font-size="14.00">14</text>
</g>
<!-- 10011111001011101100001101111101 -->
<g id="node32" class="node"><title>10011111001011101100001101111101</title>
<ellipse fill="none" stroke="black" cx="1019.17" cy="-639" rx="182.768" ry="18"/>
<text text-anchor="middle" x="1019.17" y="-635.3" font-family="Source Code Pro" font-size="14.00">10011111001011101100001101111101</text>
</g>
<!-- 11101001000110101011100111011111&#45;&#45;10011111001011101100001101111101 -->
<g id="edge31" class="edge"><title>11101001000110101011100111011111&#45;&#45;10011111001011101100001101111101</title>
<path fill="none" stroke="black" d="M737.052,-614.013C783.819,-618.17 836.215,-622.827 882.985,-626.984"/>
<text text-anchor="middle" x="810.035" y="-623.8" font-family="Source Code Pro" font-size="14.00">16</text>
</g>
<!-- 00101011100111001010101011111011 -->
<g id="node28" class="node"><title>00101011100111001010101011111011</title>
<ellipse fill="none" stroke="black" cx="1019.17" cy="-585" rx="182.768" ry="18"/>
<text text-anchor="middle" x="1019.17" y="-581.3" font-family="Source Code Pro" font-size="14.00">00101011100111001010101011111011</text>
</g>
<!-- 11100011100111001110101011010011&#45;&#45;00101011100111001010101011111011 -->
<g id="edge27" class="edge"><title>11100011100111001110101011010011&#45;&#45;00101011100111001010101011111011</title>
<path fill="none" stroke="black" d="M668.358,-520.763C715.178,-532.212 779.445,-547.205 836.535,-558 860.499,-562.531 886.36,-566.766 910.845,-570.476"/>
<text text-anchor="middle" x="810.035" y="-557.8" font-family="Source Code Pro" font-size="14.00">6</text>
</g>
<!-- 01100011100111111100101110011001 -->
<g id="node29" class="node"><title>01100011100111111100101110011001</title>
<ellipse fill="none" stroke="black" cx="1019.17" cy="-531" rx="182.768" ry="18"/>
<text text-anchor="middle" x="1019.17" y="-527.3" font-family="Source Code Pro" font-size="14.00">01100011100111111100101110011001</text>
</g>
<!-- 11100011100111001110101011010011&#45;&#45;01100011100111111100101110011001 -->
<g id="edge28" class="edge"><title>11100011100111001110101011010011&#45;&#45;01100011100111111100101110011001</title>
<path fill="none" stroke="black" d="M753.951,-513.862C790.53,-516.235 829.607,-518.769 866.184,-521.142"/>
<text text-anchor="middle" x="810.035" y="-520.8" font-family="Source Code Pro" font-size="14.00">8</text>
</g>
<!-- 10000111101111010100111101100110 -->
<g id="node30" class="node"><title>10000111101111010100111101100110</title>
<ellipse fill="none" stroke="black" cx="1019.17" cy="-477" rx="182.768" ry="18"/>
<text text-anchor="middle" x="1019.17" y="-473.3" font-family="Source Code Pro" font-size="14.00">10000111101111010100111101100110</text>
</g>
<!-- 11100011100111001110101011010011&#45;&#45;10000111101111010100111101100110 -->
<g id="edge29" class="edge"><title>11100011100111001110101011010011&#45;&#45;10000111101111010100111101100110</title>
<path fill="none" stroke="black" d="M753.951,-494.138C790.53,-491.765 829.607,-489.231 866.184,-486.858"/>
<text text-anchor="middle" x="810.035" y="-493.8" font-family="Source Code Pro" font-size="14.00">14</text>
</g>
<!-- 10011111101001111101100101010001 -->
<g id="node31" class="node"><title>10011111101001111101100101010001</title>
<ellipse fill="none" stroke="black" cx="1019.17" cy="-423" rx="182.768" ry="18"/>
<text text-anchor="middle" x="1019.17" y="-419.3" font-family="Source Code Pro" font-size="14.00">10011111101001111101100101010001</text>
</g>
<!-- 11100011100111001110101011010011&#45;&#45;10011111101001111101100101010001 -->
<g id="edge30" class="edge"><title>11100011100111001110101011010011&#45;&#45;10011111101001111101100101010001</title>
<path fill="none" stroke="black" d="M726.725,-490.905C745.986,-487.324 765.467,-482.775 783.535,-477 808.716,-468.951 811.354,-458.049 836.535,-450 854.603,-444.225 874.084,-439.676 893.346,-436.095"/>
<text text-anchor="middle" x="810.035" y="-471.8" font-family="Source Code Pro" font-size="14.00">16</text>
</g>
<!-- 00001011101010111101001111101001 -->
<g id="node27" class="node"><title>00001011101010111101001111101001</title>
<ellipse fill="none" stroke="black" cx="1019.17" cy="-369" rx="182.768" ry="18"/>
<text text-anchor="middle" x="1019.17" y="-365.3" font-family="Source Code Pro" font-size="14.00">00001011101010111101001111101001</text>
</g>
<!-- 01100010011011101011101000111101&#45;&#45;00001011101010111101001111101001 -->
<g id="edge26" class="edge"><title>01100010011011101011101000111101&#45;&#45;00001011101010111101001111101001</title>
<path fill="none" stroke="black" d="M752.366,-439.845C763.467,-435.499 774.023,-429.976 783.535,-423 798.282,-412.185 786.423,-396.298 801.535,-386 812.291,-378.671 824.082,-373.008 836.434,-368.696"/>
<text text-anchor="middle" x="810.035" y="-389.8" font-family="Source Code Pro" font-size="14.00">16</text>
</g>
<!-- 10100001001111111100100110100011 -->
<g id="node23" class="node"><title>10100001001111111100100110100011</title>
<ellipse fill="none" stroke="black" cx="1019.17" cy="-315" rx="182.768" ry="18"/>
<text text-anchor="middle" x="1019.17" y="-311.3" font-family="Source Code Pro" font-size="14.00">10100001001111111100100110100011</text>
</g>
<!-- 10010001001011101100101111011001&#45;&#45;10100001001111111100100110100011 -->
<g id="edge22" class="edge"><title>10010001001011101100101111011001&#45;&#45;10100001001111111100100110100011</title>
<path fill="none" stroke="black" d="M752.366,-385.845C763.467,-381.499 774.023,-375.976 783.535,-369 798.282,-358.185 786.423,-342.298 801.535,-332 812.291,-324.671 824.082,-319.008 836.434,-314.696"/>
<text text-anchor="middle" x="810.035" y="-335.8" font-family="Source Code Pro" font-size="14.00">10</text>
</g>
<!-- 10110101001111011100100010100011 -->
<g id="node24" class="node"><title>10110101001111011100100010100011</title>
<ellipse fill="none" stroke="black" cx="1019.17" cy="-261" rx="182.768" ry="18"/>
<text text-anchor="middle" x="1019.17" y="-257.3" font-family="Source Code Pro" font-size="14.00">10110101001111011100100010100011</text>
</g>
<!-- 10010001001011101100101111011001&#45;&#45;10110101001111011100100010100011 -->
<g id="edge23" class="edge"><title>10010001001011101100101111011001&#45;&#45;10110101001111011100100010100011</title>
<path fill="none" stroke="black" d="M756.456,-386.502C766.249,-381.93 775.416,-376.181 783.535,-369 805.99,-349.142 782.085,-326.809 801.535,-304 812.633,-290.986 820.137,-292.861 836.535,-288 855.486,-282.383 875.911,-277.902 895.985,-274.338"/>
<text text-anchor="middle" x="810.035" y="-307.8" font-family="Source Code Pro" font-size="14.00">12</text>
</g>
<!-- 10000001100010111110111000011110 -->
<g id="node22" class="node"><title>10000001100010111110111000011110</title>
<ellipse fill="none" stroke="black" cx="1019.17" cy="-207" rx="182.768" ry="18"/>
<text text-anchor="middle" x="1019.17" y="-203.3" font-family="Source Code Pro" font-size="14.00">10000001100010111110111000011110</text>
</g>
<!-- 11100001001110010110010110001011&#45;&#45;10000001100010111110111000011110 -->
<g id="edge21" class="edge"><title>11100001001110010110010110001011&#45;&#45;10000001100010111110111000011110</title>
<path fill="none" stroke="black" d="M757.775,-332.597C767.136,-327.974 775.855,-322.19 783.535,-315 811.092,-289.204 773.561,-257.342 801.535,-232 812.268,-222.278 824.629,-214.902 837.893,-209.39"/>
<text text-anchor="middle" x="810.035" y="-235.8" font-family="Source Code Pro" font-size="14.00">14</text>
</g>
<!-- 10001111101011100100000001010011 -->
<g id="node21" class="node"><title>10001111101011100100000001010011</title>
<ellipse fill="none" stroke="black" cx="1019.17" cy="-153" rx="182.768" ry="18"/>
<text text-anchor="middle" x="1019.17" y="-149.3" font-family="Source Code Pro" font-size="14.00">10001111101011100100000001010011</text>
</g>
<!-- 00111001100110101010101110001000&#45;&#45;10001111101011100100000001010011 -->
<g id="edge20" class="edge"><title>00111001100110101010101110001000&#45;&#45;10001111101011100100000001010011</title>
<path fill="none" stroke="black" d="M757.925,-278.756C767.251,-274.096 775.921,-268.26 783.535,-261 813.375,-232.551 770.728,-197.399 801.535,-170 836.561,-138.849 888.619,-133.932 932.924,-137.121"/>
<text text-anchor="middle" x="810.035" y="-173.8" font-family="Source Code Pro" font-size="14.00">20</text>
</g>
<!-- 10001111000011100100000100011011 -->
<g id="node20" class="node"><title>10001111000011100100000100011011</title>
<ellipse fill="none" stroke="black" cx="1019.17" cy="-99" rx="182.768" ry="18"/>
<text text-anchor="middle" x="1019.17" y="-95.3" font-family="Source Code Pro" font-size="14.00">10001111000011100100000100011011</text>
</g>
<!-- 01110001000111000000101110010011&#45;&#45;10001111000011100100000100011011 -->
<g id="edge19" class="edge"><title>01110001000111000000101110010011&#45;&#45;10001111000011100100000100011011</title>
<path fill="none" stroke="black" d="M757.925,-224.756C767.251,-220.096 775.921,-214.26 783.535,-207 813.375,-178.551 770.728,-143.399 801.535,-116 836.561,-84.849 888.619,-79.9318 932.924,-83.1212"/>
<text text-anchor="middle" x="810.035" y="-119.8" font-family="Source Code Pro" font-size="14.00">14</text>
</g>
<!-- 01000001100101000010100011011011 -->
<g id="node19" class="node"><title>01000001100101000010100011011011</title>
<ellipse fill="none" stroke="black" cx="1019.17" cy="-45" rx="182.768" ry="18"/>
<text text-anchor="middle" x="1019.17" y="-41.3" font-family="Source Code Pro" font-size="14.00">01000001100101000010100011011011</text>
</g>
<!-- 01000011000010100110001110001011&#45;&#45;01000001100101000010100011011011 -->
<g id="edge18" class="edge"><title>01000011000010100110001110001011&#45;&#45;01000001100101000010100011011011</title>
<path fill="none" stroke="black" d="M757.925,-170.756C767.251,-166.096 775.921,-160.26 783.535,-153 813.375,-124.551 770.728,-89.3988 801.535,-62 836.561,-30.849 888.619,-25.9318 932.924,-29.1212"/>
<text text-anchor="middle" x="810.035" y="-65.8" font-family="Source Code Pro" font-size="14.00">12</text>
</g>
<!-- 10000011101111010100111101001010 -->
<g id="node25" class="node"><title>10000011101111010100111101001010</title>
<ellipse fill="none" stroke="black" cx="1437.44" cy="-288" rx="182.768" ry="18"/>
<text text-anchor="middle" x="1437.44" y="-284.3" font-family="Source Code Pro" font-size="14.00">10000011101111010100111101001010</text>
</g>
<!-- 10110101001111011100100010100011&#45;&#45;10000011101111010100111101001010 -->
<g id="edge24" class="edge"><title>10110101001111011100100010100011&#45;&#45;10000011101111010100111101001010</title>
<path fill="none" stroke="black" d="M1172.22,-270.862C1208.8,-273.235 1247.87,-275.769 1284.45,-278.142"/>
<text text-anchor="middle" x="1228.3" y="-277.8" font-family="Source Code Pro" font-size="14.00">14</text>
</g>
<!-- 00001011101010111101001101101001 -->
<g id="node26" class="node"><title>00001011101010111101001101101001</title>
<ellipse fill="none" stroke="black" cx="1437.44" cy="-234" rx="182.768" ry="18"/>
<text text-anchor="middle" x="1437.44" y="-230.3" font-family="Source Code Pro" font-size="14.00">00001011101010111101001101101001</text>
</g>
<!-- 10110101001111011100100010100011&#45;&#45;00001011101010111101001101101001 -->
<g id="edge25" class="edge"><title>10110101001111011100100010100011&#45;&#45;00001011101010111101001101101001</title>
<path fill="none" stroke="black" d="M1172.22,-251.138C1208.8,-248.765 1247.87,-246.231 1284.45,-243.858"/>
<text text-anchor="middle" x="1228.3" y="-250.8" font-family="Source Code Pro" font-size="14.00">18</text>
</g>
<!-- 00101111100111111100001101111001 -->
<g id="node33" class="node"><title>00101111100111111100001101111001</title>
<ellipse fill="none" stroke="black" cx="1437.44" cy="-639" rx="182.768" ry="18"/>
<text text-anchor="middle" x="1437.44" y="-635.3" font-family="Source Code Pro" font-size="14.00">00101111100111111100001101111001</text>
</g>
<!-- 10011111001011101100001101111101&#45;&#45;00101111100111111100001101111001 -->
<g id="edge32" class="edge"><title>10011111001011101100001101111101&#45;&#45;00101111100111111100001101111001</title>
<path fill="none" stroke="black" d="M1201.84,-639C1219.36,-639 1237.13,-639 1254.64,-639"/>
<text text-anchor="middle" x="1228.3" y="-642.8" font-family="Source Code Pro" font-size="14.00">8</text>
</g>
<!-- 01101001000111101111101110111111 -->
<g id="node39" class="node"><title>01101001000111101111101110111111</title>
<ellipse fill="none" stroke="black" cx="1437.44" cy="-882" rx="182.768" ry="18"/>
<text text-anchor="middle" x="1437.44" y="-878.3" font-family="Source Code Pro" font-size="14.00">01101001000111101111101110111111</text>
</g>
<!-- 11111101010110100110111110111001&#45;&#45;01101001000111101111101110111111 -->
<g id="edge38" class="edge"><title>11111101010110100110111110111001&#45;&#45;01101001000111101111101110111111</title>
<path fill="none" stroke="black" d="M1172.22,-864.862C1208.8,-867.235 1247.87,-869.769 1284.45,-872.142"/>
<text text-anchor="middle" x="1228.3" y="-871.8" font-family="Source Code Pro" font-size="14.00">10</text>
</g>
<!-- 00011111001011100111111111101101 -->
<g id="node40" class="node"><title>00011111001011100111111111101101</title>
<ellipse fill="none" stroke="black" cx="1437.44" cy="-828" rx="182.768" ry="18"/>
<text text-anchor="middle" x="1437.44" y="-824.3" font-family="Source Code Pro" font-size="14.00">00011111001011100111111111101101</text>
</g>
<!-- 11111101010110100110111110111001&#45;&#45;00011111001011100111111111101101 -->
<g id="edge39" class="edge"><title>11111101010110100110111110111001&#45;&#45;00011111001011100111111111101101</title>
<path fill="none" stroke="black" d="M1172.22,-845.138C1208.8,-842.765 1247.87,-840.231 1284.45,-837.858"/>
<text text-anchor="middle" x="1228.3" y="-844.8" font-family="Source Code Pro" font-size="14.00">12</text>
</g>
<!-- 11100011100111111000111011011111 -->
<g id="node38" class="node"><title>11100011100111111000111011011111</title>
<ellipse fill="none" stroke="black" cx="1437.44" cy="-747" rx="182.768" ry="18"/>
<text text-anchor="middle" x="1437.44" y="-743.3" font-family="Source Code Pro" font-size="14.00">11100011100111111000111011011111</text>
</g>
<!-- 10010111101011111101110101010111&#45;&#45;11100011100111111000111011011111 -->
<g id="edge37" class="edge"><title>10010111101011111101110101010111&#45;&#45;11100011100111111000111011011111</title>
<path fill="none" stroke="black" d="M1201.84,-747C1219.36,-747 1237.13,-747 1254.64,-747"/>
<text text-anchor="middle" x="1228.3" y="-750.8" font-family="Source Code Pro" font-size="14.00">12</text>
</g>
<!-- 01011111100111111110110010111111 -->
<g id="node45" class="node"><title>01011111100111111110110010111111</title>
<ellipse fill="none" stroke="black" cx="1437.44" cy="-1098" rx="182.768" ry="18"/>
<text text-anchor="middle" x="1437.44" y="-1094.3" font-family="Source Code Pro" font-size="14.00">01011111100111111110110010111111</text>
</g>
<!-- 01011111100111111110110011101111&#45;&#45;01011111100111111110110010111111 -->
<g id="edge44" class="edge"><title>01011111100111111110110011101111&#45;&#45;01011111100111111110110010111111</title>
<path fill="none" stroke="black" d="M1172.22,-1080.86C1208.8,-1083.23 1247.87,-1085.77 1284.45,-1088.14"/>
<text text-anchor="middle" x="1228.3" y="-1087.8" font-family="Source Code Pro" font-size="14.00">2</text>
</g>
<!-- 01101011111111111110011001111011 -->
<g id="node46" class="node"><title>01101011111111111110011001111011</title>
<ellipse fill="none" stroke="black" cx="1437.44" cy="-1044" rx="182.768" ry="18"/>
<text text-anchor="middle" x="1437.44" y="-1040.3" font-family="Source Code Pro" font-size="14.00">01101011111111111110011001111011</text>
</g>
<!-- 01011111100111111110110011101111&#45;&#45;01101011111111111110011001111011 -->
<g id="edge45" class="edge"><title>01011111100111111110110011101111&#45;&#45;01101011111111111110011001111011</title>
<path fill="none" stroke="black" d="M1172.22,-1061.14C1208.8,-1058.77 1247.87,-1056.23 1284.45,-1053.86"/>
<text text-anchor="middle" x="1228.3" y="-1060.8" font-family="Source Code Pro" font-size="14.00">10</text>
</g>
</g>
</svg>
